{
  "source": "C:\\Users\\Peter\\Desktop\\stuff\\MIUN\\quantitative_research\\video_compression\\videos\\BVI-HD\\BVI-HD_CDVL_videos\\ORIG\\CalmingWater_1920x1080_60fps.mp4",
  "output": "C:\\Users\\Peter\\Desktop\\stuff\\MIUN\\quantitative_research\\video_compression\\compressed_videos\\BVI-HD\\av1\\4\\CalmingWater_1920x1080_60fps_av1.mkv",
  "codec": "av1",
  "ok": "Input #0, mov,mp4,m4a,3gp,3g2,mj2, from 'C:\\Users\\Peter\\Desktop\\stuff\\MIUN\\quantitative_research\\video_compression\\videos\\BVI-HD\\BVI-HD_CDVL_videos\\ORIG\\CalmingWater_1920x1080_60fps.mp4':\n  Metadata:\n    major_brand     : isom\n    minor_version   : 512\n    compatible_brands: isomiso2avc1mp41\n    encoder         : Lavf54.28.101\n  Duration: 00:00:05.00, start: 0.000000, bitrate: 623787 kb/s\n  Stream #0:0[0x1](und): Video: h264 (High 4:4:4 Predictive) (avc1 / 0x31637661), yuv420p(progressive), 1920x1080, 623782 kb/s, 60 fps, 60 tbr, 60 tbn (default)\n    Metadata:\n      handler_name    : VideoHandler\n      vendor_id       : [0][0][0][0]\n[out#0/matroska @ 00000205d5ee90c0] Codec AVOption b:a (set bitrate (in bits/s)) has not been used for any stream. The most likely reason is either wrong type (e.g. a video option with no video streams) or that it is a private option of some decoder which was not actually used for any stream.\nStream mapping:\n  Stream #0:0 -> #0:0 (h264 (native) -> av1 (libsvtav1))\nPress [q] to stop, [?] for help\nSvt[info]: -------------------------------------------\nSvt[info]: SVT [version]:\tSVT-AV1 Encoder Lib v3.1.0-19-g6ecfe8ec\nSvt[info]: SVT [build]  :\tGCC 15.2.0\t 64 bit\nSvt[info]: LIB Build date: Aug 17 2025 11:37:13\nSvt[info]: -------------------------------------------\nSvt[info]: Level of Parallelism: 5\nSvt[info]: Number of PPCS 93\nSvt[info]: [asm level on system : up to avx2]\nSvt[info]: [asm level selected : up to avx2]\nSvt[info]: -------------------------------------------\nSvt[info]: SVT [config]: main profile\ttier (auto)\tlevel (auto)\nSvt[info]: SVT [config]: width / height / fps numerator / fps denominator \t\t: 1920 / 1080 / 60 / 1\nSvt[info]: SVT [config]: bit-depth / color format \t\t\t\t\t: 8 / YUV420\nSvt[info]: SVT [config]: preset / tune / pred struct \t\t\t\t\t: 4 / PSNR / random access\nSvt[info]: SVT [config]: gop size / mini-gop size / key-frame type \t\t\t: 321 / 16 / key frame\nSvt[info]: SVT [config]: BRC mode / target bitrate (kbps)\t\t\t\t: VBR / 4000 \nSvt[info]: SVT [config]: AQ mode / Variance Boost \t\t\t\t\t: 2 / 0\nSvt[info]: SVT [config]: sharpness / luminance-based QP bias \t\t\t\t: 0 / 0\nSvt[info]: SVT [config]: QP scale compress strength \t\t\t\t\t: 0\nSvt[info]: -------------------------------------------\nOutput #0, matroska, to 'C:\\Users\\Peter\\Desktop\\stuff\\MIUN\\quantitative_research\\video_compression\\compressed_videos\\BVI-HD\\av1\\4\\CalmingWater_1920x1080_60fps_av1.mkv':\n  Metadata:\n    major_brand     : isom\n    minor_version   : 512\n    compatible_brands: isomiso2avc1mp41\n    encoder         : Lavf62.3.100\n  Stream #0:0(und): Video: av1 (AV01 / 0x31305641), yuv420p(tv, progressive), 1920x1080, q=2-31, 4000 kb/s, 60 fps, 1k tbn (default)\n    Metadata:\n      encoder         : Lavc62.11.100 libsvtav1\n      handler_name    : VideoHandler\n      vendor_id       : [0][0][0][0]\n    Side data:\n      cpb: bitrate max/min/avg: 0/0/4000000 buffer size: 4000000 vbv_delay: N/A\nframe=    0 fps=0.0 q=0.0 size=       0KiB time=N/A bitrate=N/A speed=N/A elapsed=0:00:01.02    \nframe=    0 fps=0.0 q=0.0 size=       0KiB time=N/A bitrate=N/A speed=N/A elapsed=0:00:01.62    \nframe=    0 fps=0.0 q=0.0 size=       0KiB time=N/A bitrate=N/A speed=N/A elapsed=0:00:02.23    \nframe=    0 fps=0.0 q=0.0 size=       0KiB time=N/A bitrate=N/A speed=N/A elapsed=0:00:02.85    \nframe=    0 fps=0.0 q=0.0 size=       0KiB time=N/A bitrate=N/A speed=N/A elapsed=0:00:03.46    \nframe=    0 fps=0.0 q=0.0 size=       0KiB time=N/A bitrate=N/A speed=N/A elapsed=0:00:04.00    \nframe=    0 fps=0.0 q=0.0 size=       0KiB time=N/A bitrate=N/A speed=N/A elapsed=0:00:04.57    \nframe=    1 fps=0.2 q=45.0 size=       1KiB time=00:00:00.00 bitrate=N/A speed=   0x elapsed=0:00:05.16    \nframe=    1 fps=0.2 q=45.0 size=       1KiB time=00:00:00.00 bitrate=N/A speed=   0x elapsed=0:00:05.73    \nframe=    1 fps=0.2 q=45.0 size=       1KiB time=00:00:00.00 bitrate=N/A speed=   0x elapsed=0:00:06.33    \nframe=    3 fps=0.4 q=53.0 size=       1KiB time=00:00:00.03 bitrate= 170.9kbits/s speed=0.00483x elapsed=0:00:06.90    \nframe=    6 fps=0.8 q=54.0 size=       1KiB time=00:00:00.06 bitrate=  85.4kbits/s speed=0.00898x elapsed=0:00:07.42    \nframe=    7 fps=0.9 q=52.0 size=       1KiB time=00:00:00.10 bitrate=  57.0kbits/s speed=0.0125x elapsed=0:00:08.03    \nframe=   10 fps=1.1 q=55.0 size=       1KiB time=00:00:00.13 bitrate=  42.7kbits/s speed=0.0153x elapsed=0:00:08.72    \nframe=   12 fps=1.3 q=55.0 size=       1KiB time=00:00:00.16 bitrate=  34.2kbits/s speed=0.0179x elapsed=0:00:09.33    \nframe=   13 fps=1.3 q=51.0 size=       1KiB time=00:00:00.20 bitrate=  28.5kbits/s speed=0.02x elapsed=0:00:09.98    \nframe=   16 fps=1.5 q=55.0 size=       1KiB time=00:00:00.25 bitrate=  22.8kbits/s speed=0.0235x elapsed=0:00:10.62    \nframe=   18 fps=1.6 q=55.0 size=       1KiB time=00:00:00.28 bitrate=  20.1kbits/s speed=0.0252x elapsed=0:00:11.24    \nframe=   19 fps=1.6 q=53.0 size=       1KiB time=00:00:00.30 bitrate=  19.0kbits/s speed=0.0252x elapsed=0:00:11.88    \nframe=   21 fps=1.7 q=51.0 size=       1KiB time=00:00:00.33 bitrate=  17.1kbits/s speed=0.0268x elapsed=0:00:12.43    \nframe=   22 fps=1.7 q=55.0 size=       1KiB time=00:00:00.35 bitrate=  16.3kbits/s speed=0.0269x elapsed=0:00:13.00    \nframe=   23 fps=1.7 q=53.0 size=       1KiB time=00:00:00.36 bitrate=  15.5kbits/s speed=0.0269x elapsed=0:00:13.61    \nframe=   26 fps=1.8 q=55.0 size=       1KiB time=00:00:00.40 bitrate=  14.2kbits/s speed=0.0279x elapsed=0:00:14.34    \nframe=   28 fps=1.9 q=58.0 size=       1KiB time=00:00:00.43 bitrate=  13.1kbits/s speed=0.0288x elapsed=0:00:15.02    \nframe=   29 fps=1.9 q=51.0 size=       1KiB time=00:00:00.46 bitrate=  12.2kbits/s speed=0.0298x elapsed=0:00:15.67    \nframe=   32 fps=2.0 q=58.0 size=       1KiB time=00:00:00.50 bitrate=  11.4kbits/s speed=0.0305x elapsed=0:00:16.36    \nframe=   34 fps=2.0 q=58.0 size=       1KiB time=00:00:00.55 bitrate=  10.4kbits/s speed=0.0323x elapsed=0:00:17.01    \nframe=   35 fps=2.0 q=56.0 size=       1KiB time=00:00:00.56 bitrate=  10.1kbits/s speed=0.032x elapsed=0:00:17.68    \nframe=   37 fps=2.0 q=54.0 size=       1KiB time=00:00:00.60 bitrate=   9.5kbits/s speed=0.0328x elapsed=0:00:18.28    \nframe=   39 fps=2.1 q=56.0 size=       1KiB time=00:00:00.63 bitrate=   9.0kbits/s speed=0.0334x elapsed=0:00:18.94    \nframe=   41 fps=2.1 q=51.0 size=       1KiB time=00:00:00.65 bitrate=   8.8kbits/s speed=0.0331x elapsed=0:00:19.63    \nframe=   43 fps=2.1 q=56.0 size=       1KiB time=00:00:00.68 bitrate=   8.3kbits/s speed=0.0336x elapsed=0:00:20.31    \nframe=   45 fps=2.1 q=54.0 size=       1KiB time=00:00:00.73 bitrate=   7.8kbits/s speed=0.0349x elapsed=0:00:21.04    \nframe=   47 fps=2.2 q=55.0 size=       1KiB time=00:00:00.76 bitrate=   7.4kbits/s speed=0.0353x elapsed=0:00:21.69    \nframe=   49 fps=2.2 q=47.0 size=       1KiB time=00:00:00.80 bitrate=   7.1kbits/s speed=0.0359x elapsed=0:00:22.27    \nframe=   51 fps=2.2 q=57.0 size=       1KiB time=00:00:00.83 bitrate=   6.8kbits/s speed=0.0364x elapsed=0:00:22.88    \nframe=   53 fps=2.3 q=55.0 size=       1KiB time=00:00:00.86 bitrate=   6.6kbits/s speed=0.0369x elapsed=0:00:23.51    \nframe=   54 fps=2.2 q=58.0 size=       1KiB time=00:00:00.88 bitrate=   6.4kbits/s speed=0.0366x elapsed=0:00:24.10    \nframe=   55 fps=2.2 q=57.0 size=       1KiB time=00:00:00.90 bitrate=   6.3kbits/s speed=0.0364x elapsed=0:00:24.73    \nframe=   57 fps=2.2 q=54.0 size=       1KiB time=00:00:00.93 bitrate=   6.1kbits/s speed=0.0367x elapsed=0:00:25.43    \nframe=   59 fps=2.3 q=57.0 size=       1KiB time=00:00:00.95 bitrate=   6.0kbits/s speed=0.0364x elapsed=0:00:26.07    \nframe=   61 fps=2.3 q=55.0 size=       1KiB time=00:00:01.00 bitrate=   5.7kbits/s speed=0.0375x elapsed=0:00:26.70    \nframe=   64 fps=2.3 q=60.0 size=       1KiB time=00:00:01.03 bitrate=   5.5kbits/s speed=0.0377x elapsed=0:00:27.38    \nframe=   66 fps=2.4 q=60.0 size=       1KiB time=00:00:01.08 bitrate=   5.3kbits/s speed=0.0386x elapsed=0:00:28.03    \nframe=   68 fps=2.4 q=60.0 size=       1KiB time=00:00:01.11 bitrate=   5.1kbits/s speed=0.0389x elapsed=0:00:28.66    \nframe=   70 fps=2.4 q=60.0 size=       1KiB time=00:00:01.15 bitrate=   5.0kbits/s speed=0.0393x elapsed=0:00:29.27    \nframe=   71 fps=2.4 q=58.0 size=       1KiB time=00:00:01.16 bitrate=   4.9kbits/s speed=0.039x elapsed=0:00:29.92    \nframe=   73 fps=2.4 q=55.0 size=       1KiB time=00:00:01.20 bitrate=   4.7kbits/s speed=0.0393x elapsed=0:00:30.56    \nframe=   76 fps=2.4 q=59.0 size=       1KiB time=00:00:01.25 bitrate=   4.6kbits/s speed=0.04x elapsed=0:00:31.21    \nframe=   77 fps=2.4 q=56.0 size=       1KiB time=00:00:01.26 bitrate=   4.5kbits/s speed=0.0398x elapsed=0:00:31.84    \nframe=   81 fps=2.5 q=51.0 size=       1KiB time=00:00:01.33 bitrate=   4.3kbits/s speed=0.0411x elapsed=0:00:32.45    \nframe=   83 fps=2.5 q=57.0 size=       1KiB time=00:00:01.36 bitrate=   4.2kbits/s speed=0.0414x elapsed=0:00:32.99    \nframe=   85 fps=2.5 q=55.0 size=       1KiB time=00:00:01.40 bitrate=   4.1kbits/s speed=0.0417x elapsed=0:00:33.54    \nframe=   87 fps=2.6 q=57.0 size=       1KiB time=00:00:01.43 bitrate=   4.0kbits/s speed=0.0421x elapsed=0:00:34.07    \nframe=   90 fps=2.6 q=59.0 size=       1KiB time=00:00:01.46 bitrate=   3.9kbits/s speed=0.0424x elapsed=0:00:34.59    \nframe=   92 fps=2.6 q=59.0 size=       1KiB time=00:00:01.51 bitrate=   3.8kbits/s speed=0.0431x elapsed=0:00:35.16    \nframe=   96 fps=2.7 q=59.0 size=       1KiB time=00:00:01.58 bitrate=   3.6kbits/s speed=0.0443x elapsed=0:00:35.72    \nframe=   98 fps=2.7 q=59.0 size=       1KiB time=00:00:01.61 bitrate=   3.5kbits/s speed=0.0446x elapsed=0:00:36.27    \nframe=  100 fps=2.7 q=59.0 size=       1KiB time=00:00:01.65 bitrate=   3.5kbits/s speed=0.0448x elapsed=0:00:36.80    \nframe=  102 fps=2.7 q=59.0 size=       1KiB time=00:00:01.68 bitrate=   3.4kbits/s speed=0.0451x elapsed=0:00:37.36    \nframe=  105 fps=2.8 q=55.0 size=       1KiB time=00:00:01.71 bitrate=   3.3kbits/s speed=0.0452x elapsed=0:00:37.93    \nframe=  107 fps=2.8 q=57.0 size=       1KiB time=00:00:01.76 bitrate=   3.2kbits/s speed=0.0458x elapsed=0:00:38.53    \nframe=  110 fps=2.8 q=59.0 size=       1KiB time=00:00:01.81 bitrate=   3.1kbits/s speed=0.0464x elapsed=0:00:39.12    \nframe=  114 fps=2.9 q=59.0 size=       1KiB time=00:00:01.88 bitrate=   3.0kbits/s speed=0.0474x elapsed=0:00:39.69    \nframe=  116 fps=2.9 q=59.0 size=       1KiB time=00:00:01.91 bitrate=   3.0kbits/s speed=0.0476x elapsed=0:00:40.29    \nframe=  118 fps=2.9 q=59.0 size=       1KiB time=00:00:01.95 bitrate=   2.9kbits/s speed=0.0478x elapsed=0:00:40.80    \nframe=  121 fps=2.9 q=55.0 size=       1KiB time=00:00:01.96 bitrate=   2.9kbits/s speed=0.0476x elapsed=0:00:41.33    \nframe=  123 fps=2.9 q=57.0 size=       1KiB time=00:00:02.03 bitrate=   2.8kbits/s speed=0.0485x elapsed=0:00:41.96    \nframe=  127 fps=3.0 q=57.0 size=       1KiB time=00:00:02.10 bitrate=   2.7kbits/s speed=0.0494x elapsed=0:00:42.53    \nframe=  130 fps=3.0 q=59.0 size=       1KiB time=00:00:02.15 bitrate=   2.6kbits/s speed=0.0499x elapsed=0:00:43.09    \nframe=  132 fps=3.0 q=59.0 size=       1KiB time=00:00:02.18 bitrate=   2.6kbits/s speed=0.0501x elapsed=0:00:43.60    \nframe=  135 fps=3.1 q=57.0 size=       1KiB time=00:00:02.21 bitrate=   2.6kbits/s speed=0.0502x elapsed=0:00:44.13    \nframe=  137 fps=3.1 q=55.0 size=       1KiB time=00:00:02.26 bitrate=   2.5kbits/s speed=0.0507x elapsed=0:00:44.70    \nframe=  140 fps=3.1 q=59.0 size=       1KiB time=00:00:02.31 bitrate=   2.5kbits/s speed=0.0512x elapsed=0:00:45.28    \nframe=  142 fps=3.1 q=59.0 size=       1KiB time=00:00:02.35 bitrate=   2.4kbits/s speed=0.0512x elapsed=0:00:45.88    \nframe=  146 fps=3.1 q=59.0 size=       1KiB time=00:00:02.40 bitrate=   2.4kbits/s speed=0.0517x elapsed=0:00:46.41    \nframe=  148 fps=3.2 q=59.0 size=       1KiB time=00:00:02.45 bitrate=   2.3kbits/s speed=0.0522x elapsed=0:00:46.95    \nframe=  150 fps=3.2 q=59.0 size=       1KiB time=00:00:02.48 bitrate=   2.3kbits/s speed=0.0523x elapsed=0:00:47.49    \nframe=  153 fps=3.2 q=55.0 size=       1KiB time=00:00:02.50 bitrate=   2.3kbits/s speed=0.0521x elapsed=0:00:48.02    \nframe=  155 fps=3.2 q=56.0 size=       1KiB time=00:00:02.55 bitrate=   2.2kbits/s speed=0.0524x elapsed=0:00:48.61    \nframe=  158 fps=3.2 q=58.0 size=       1KiB time=00:00:02.61 bitrate=   2.2kbits/s speed=0.0532x elapsed=0:00:49.16    \nframe=  162 fps=3.3 q=58.0 size=       1KiB time=00:00:02.68 bitrate=   2.1kbits/s speed=0.054x elapsed=0:00:49.72    \nframe=  164 fps=3.3 q=58.0 size=       1KiB time=00:00:02.71 bitrate=   2.1kbits/s speed=0.0541x elapsed=0:00:50.24    \nframe=  167 fps=3.3 q=56.0 size=       1KiB time=00:00:02.75 bitrate=   2.1kbits/s speed=0.0542x elapsed=0:00:50.77    \nframe=  169 fps=3.3 q=54.0 size=       1KiB time=00:00:02.80 bitrate=   2.0kbits/s speed=0.0544x elapsed=0:00:51.43    \nframe=  172 fps=3.3 q=59.0 size=       1KiB time=00:00:02.83 bitrate=   2.0kbits/s speed=0.0545x elapsed=0:00:52.03    \nframe=  176 fps=3.3 q=59.0 size=       1KiB time=00:00:02.91 bitrate=   2.0kbits/s speed=0.0555x elapsed=0:00:52.59    \nframe=  179 fps=3.4 q=56.0 size=       1KiB time=00:00:02.96 bitrate=   1.9kbits/s speed=0.0558x elapsed=0:00:53.14    \nframe=  182 fps=3.4 q=59.0 size=       1KiB time=00:00:03.01 bitrate=   1.9kbits/s speed=0.0562x elapsed=0:00:53.69    \nframe=  183 fps=3.4 q=56.0 size=       1KiB time=00:00:03.03 bitrate=   1.9kbits/s speed=0.0559x elapsed=0:00:54.26    \nframe=  187 fps=3.4 q=56.0 size=       1KiB time=00:00:03.10 bitrate=   1.8kbits/s speed=0.0566x elapsed=0:00:54.81    \nframe=  191 fps=3.4 q=56.0 size=       1KiB time=00:00:03.16 bitrate=   1.8kbits/s speed=0.0572x elapsed=0:00:55.36    \nframe=  194 fps=3.5 q=58.0 size=       1KiB time=00:00:03.21 bitrate=   1.8kbits/s speed=0.0575x elapsed=0:00:55.91    \nframe=  197 fps=3.5 q=54.0 size=       1KiB time=00:00:03.26 bitrate=   1.7kbits/s speed=0.0579x elapsed=0:00:56.44    \nframe=  199 fps=3.5 q=56.0 size=       1KiB time=00:00:03.30 bitrate=   1.7kbits/s speed=0.0579x elapsed=0:00:57.00    \nframe=  202 fps=3.5 q=58.0 size=       1KiB time=00:00:03.35 bitrate=   1.7kbits/s speed=0.0582x elapsed=0:00:57.60    \nframe=  205 fps=3.5 q=54.0 size=       1KiB time=00:00:03.40 bitrate=   1.7kbits/s speed=0.0584x elapsed=0:00:58.19    \nframe=  209 fps=3.6 q=50.0 size=       1KiB time=00:00:03.46 bitrate=   1.6kbits/s speed=0.059x elapsed=0:00:58.77    \nframe=  213 fps=3.6 q=53.0 size=       1KiB time=00:00:03.53 bitrate=   1.6kbits/s speed=0.0595x elapsed=0:00:59.34    \nframe=  217 fps=3.6 q=54.0 size=       1KiB time=00:00:03.60 bitrate=   1.6kbits/s speed=0.0601x elapsed=0:00:59.89    \nframe=  217 fps=3.6 q=54.0 size=       1KiB time=00:00:03.60 bitrate=   1.6kbits/s speed=0.0595x elapsed=0:01:00.46    \nframe=  221 fps=3.6 q=53.0 size=       1KiB time=00:00:03.66 bitrate=   1.6kbits/s speed=0.0601x elapsed=0:01:01.00    \nframe=  225 fps=3.7 q=49.0 size=       1KiB time=00:00:03.73 bitrate=   1.5kbits/s speed=0.0606x elapsed=0:01:01.58    \nframe=  229 fps=3.7 q=55.0 size=       1KiB time=00:00:03.80 bitrate=   1.5kbits/s speed=0.0612x elapsed=0:01:02.12    \nframe=  233 fps=3.7 q=53.0 size=       1KiB time=00:00:03.86 bitrate=   1.5kbits/s speed=0.0617x elapsed=0:01:02.68    \nframe=  233 fps=3.7 q=53.0 size=       1KiB time=00:00:03.86 bitrate=   1.5kbits/s speed=0.0612x elapsed=0:01:03.23    \nframe=  237 fps=3.7 q=53.0 size=       1KiB time=00:00:03.93 bitrate=   1.4kbits/s speed=0.0617x elapsed=0:01:03.78    \nframe=  241 fps=3.7 q=48.0 size=       1KiB time=00:00:04.00 bitrate=   1.4kbits/s speed=0.0622x elapsed=0:01:04.35    \nframe=  243 fps=3.7 q=56.0 size=       1KiB time=00:00:04.03 bitrate=   1.4kbits/s speed=0.0621x elapsed=0:01:04.94    \nframe=  247 fps=3.8 q=56.0 size=       1KiB time=00:00:04.10 bitrate=   1.4kbits/s speed=0.0626x elapsed=0:01:05.49    \nframe=  249 fps=3.8 q=53.0 size=       1KiB time=00:00:04.13 bitrate=   1.4kbits/s speed=0.0626x elapsed=0:01:06.05    \nframe=  253 fps=3.8 q=52.0 size=       1KiB time=00:00:04.16 bitrate=   1.4kbits/s speed=0.0626x elapsed=0:01:06.60    \nframe=  253 fps=3.8 q=52.0 size=       1KiB time=00:00:04.20 bitrate=   1.4kbits/s speed=0.0625x elapsed=0:01:07.15    \nframe=  257 fps=3.8 q=48.0 size=       1KiB time=00:00:04.26 bitrate=   1.3kbits/s speed=0.063x elapsed=0:01:07.69    \nframe=  261 fps=3.8 q=52.0 size=       1KiB time=00:00:04.33 bitrate=   1.3kbits/s speed=0.0635x elapsed=0:01:08.22    \nframe=  265 fps=3.9 q=52.0 size=       1KiB time=00:00:04.40 bitrate=   1.3kbits/s speed=0.064x elapsed=0:01:08.74    \nframe=  265 fps=3.8 q=52.0 size=       1KiB time=00:00:04.40 bitrate=   1.3kbits/s speed=0.0635x elapsed=0:01:09.30    \nframe=  269 fps=3.9 q=54.0 size=       1KiB time=00:00:04.46 bitrate=   1.3kbits/s speed=0.0639x elapsed=0:01:09.86    \nframe=  273 fps=3.9 q=46.0 size=       1KiB time=00:00:04.53 bitrate=   1.3kbits/s speed=0.0644x elapsed=0:01:10.42    \nframe=  277 fps=3.9 q=57.0 size=       1KiB time=00:00:04.60 bitrate=   1.2kbits/s speed=0.0648x elapsed=0:01:10.98    \nframe=  281 fps=3.9 q=54.0 size=       1KiB time=00:00:04.66 bitrate=   1.2kbits/s speed=0.0653x elapsed=0:01:11.51    \nframe=  281 fps=3.9 q=54.0 size=       1KiB time=00:00:04.66 bitrate=   1.2kbits/s speed=0.0648x elapsed=0:01:12.06    \nframe=  285 fps=3.9 q=57.0 size=       1KiB time=00:00:04.73 bitrate=   1.2kbits/s speed=0.0652x elapsed=0:01:12.58    \nframe=  287 fps=3.9 q=57.0 size=       1KiB time=00:00:04.76 bitrate=   1.2kbits/s speed=0.0652x elapsed=0:01:13.14    \n[out#0/matroska @ 00000205d5ee90c0] video:2691KiB audio:0KiB subtitle:0KiB other streams:0KiB global headers:0KiB muxing overhead: 0.078207%\nframe=  300 fps=4.1 q=57.0 Lsize=    2693KiB time=00:00:04.98 bitrate=4427.0kbits/s speed=0.0678x elapsed=0:01:13.52    \n",
  "seconds": 74.18418383598328,
  "probe_out": {}
}